<svg width="75" height="18" viewBox="0 0 75 18" fill="none" xmlns="http://www.w3.org/2000/svg">
<path d="M3.8743e-06 16.8V1.90735e-06H7.848C10.424 1.90735e-06 12.384 0.568002 13.728 1.704C15.072 2.84 15.744 4.384 15.744 6.336C15.744 7.632 15.432 8.752 14.808 9.696C14.184 10.624 13.296 11.336 12.144 11.832C11.008 12.328 9.656 12.576 8.088 12.576H3.144L5.664 10.248V16.8H3.8743e-06ZM10.056 16.8L5.928 10.68H11.928L16.104 16.8H10.056ZM5.664 10.872L3.144 8.304H7.728C8.512 8.304 9.088 8.128 9.456 7.776C9.84 7.424 10.032 6.944 10.032 6.336C10.032 5.728 9.84 5.248 9.456 4.896C9.088 4.544 8.512 4.368 7.728 4.368H3.144L5.664 1.8V10.872ZM26.5016 16.8V14.472L26.1176 13.848V9.432C26.1176 8.792 25.9176 8.304 25.5176 7.968C25.1336 7.632 24.5016 7.464 23.6216 7.464C23.0296 7.464 22.4296 7.56 21.8216 7.752C21.2136 7.928 20.6936 8.176 20.2616 8.496L18.5336 4.92C19.3016 4.44 20.2216 4.072 21.2936 3.816C22.3656 3.56 23.4136 3.432 24.4376 3.432C26.6936 3.432 28.4376 3.936 29.6696 4.944C30.9176 5.952 31.5416 7.552 31.5416 9.744V16.8H26.5016ZM22.7816 17.04C21.7096 17.04 20.8136 16.856 20.0936 16.488C19.3736 16.12 18.8296 15.632 18.4616 15.024C18.0936 14.4 17.9096 13.712 17.9096 12.96C17.9096 12.112 18.1256 11.392 18.5576 10.8C18.9896 10.208 19.6456 9.76 20.5256 9.456C21.4216 9.152 22.5496 9 23.9096 9H26.6456V11.616H24.7736C24.1976 11.616 23.7736 11.712 23.5016 11.904C23.2456 12.08 23.1176 12.352 23.1176 12.72C23.1176 13.024 23.2296 13.28 23.4536 13.488C23.6936 13.68 24.0136 13.776 24.4136 13.776C24.7816 13.776 25.1176 13.68 25.4216 13.488C25.7416 13.28 25.9736 12.96 26.1176 12.528L26.8136 14.136C26.6056 15.112 26.1656 15.84 25.4936 16.32C24.8216 16.8 23.9176 17.04 22.7816 17.04ZM34.8458 16.8V3.672H40.0058V7.512L38.9738 6.408C39.4858 5.416 40.1738 4.672 41.0378 4.176C41.9178 3.68 42.8938 3.432 43.9658 3.432C44.9738 3.432 45.8858 3.64 46.7018 4.056C47.5178 4.456 48.1578 5.088 48.6218 5.952C49.1018 6.816 49.3418 7.936 49.3418 9.312V16.8H43.9178V10.248C43.9178 9.432 43.7738 8.856 43.4858 8.52C43.1978 8.168 42.8058 7.992 42.3098 7.992C41.9418 7.992 41.5978 8.08 41.2778 8.256C40.9738 8.416 40.7258 8.688 40.5338 9.072C40.3578 9.456 40.2698 9.976 40.2698 10.632V16.8H34.8458ZM58.9933 17.04C57.1853 17.04 55.7773 16.608 54.7693 15.744C53.7613 14.864 53.2573 13.52 53.2573 11.712V0.720003H58.6813V11.664C58.6813 12.064 58.7853 12.376 58.9933 12.6C59.2173 12.824 59.4893 12.936 59.8093 12.936C60.2733 12.936 60.6813 12.816 61.0333 12.576L62.3293 16.344C61.9133 16.584 61.4093 16.76 60.8173 16.872C60.2413 16.984 59.6333 17.04 58.9933 17.04ZM51.4573 7.632V3.672H61.3693V7.632H51.4573ZM64.6564 16.8V3.672H69.8164V7.632L68.9764 6.504C69.3764 5.48 70.0164 4.712 70.8964 4.2C71.7764 3.688 72.8324 3.432 74.0644 3.432V8.232C73.8244 8.2 73.6084 8.176 73.4164 8.16C73.2404 8.144 73.0564 8.136 72.8644 8.136C72.0484 8.136 71.3764 8.352 70.8484 8.784C70.3364 9.2 70.0804 9.928 70.0804 10.968V16.8H64.6564Z" fill="white"/>
</svg>
